<?xml version="1.0" standalone="no"?>
<!DOCTYPE svg PUBLIC "-//W3C//DTD SVG 20010904//EN"
 "http://www.w3.org/TR/2001/REC-SVG-20010904/DTD/svg10.dtd">
<svg version="1.0" xmlns="http://www.w3.org/2000/svg"
 width="680.000000pt" height="206.000000pt" viewBox="0 0 680.000000 206.000000"
 preserveAspectRatio="xMidYMid meet">
<metadata>
Created by potrace 1.16, written by Peter Selinger 2001-2019
</metadata>
<g transform="translate(0.000000,206.000000) scale(0.100000,-0.100000)"
fill="#000000" stroke="none">
<path d="M0 1030 l0 -1030 1513 2 1512 3 0 194 0 195 -110 28 c-233 58 -342
72 -580 73 -189 0 -235 -3 -330 -22 -130 -27 -254 -67 -345 -113 -74 -37 -170
-105 -170 -121 0 -6 -16 -33 -36 -60 -26 -36 -42 -49 -60 -49 -14 0 -39 -6
-57 -14 l-33 -13 22 63 c21 63 37 82 100 120 17 11 80 52 140 93 255 175 464
229 842 218 324 -8 544 -55 589 -123 8 -13 19 -24 24 -24 5 0 8 338 7 802 l-3
803 -1512 3 -1513 2 0 -1030z m1511 801 l97 -158 -60 -43 c-297 -217 -513
-722 -589 -1382 -7 -59 -14 -107 -15 -105 -2 1 -10 110 -18 242 -9 132 -18
271 -21 308 -7 86 10 305 35 462 63 397 198 677 384 797 33 21 66 38 75 38 10
0 53 -61 112 -159z m-1141 -811 l0 -920 -110 0 -110 0 0 920 0 920 110 0 110
0 0 -920z m390 0 l0 -920 -110 0 -110 0 0 920 0 920 110 0 110 0 0 -920z
m1599 229 c83 -61 150 -114 147 -117 -3 -2 -63 -19 -133 -37 -160 -42 -249
-73 -388 -139 -361 -172 -636 -432 -808 -765 l-49 -96 5 230 c4 219 5 233 30
298 62 161 146 286 272 406 166 157 396 268 655 315 41 8 84 14 96 15 11 1 86
-47 173 -110z"/>
<path d="M3247 2054 c-4 -4 -7 -221 -7 -481 l0 -474 150 3 c169 3 183 9 200
84 13 54 12 740 0 785 -6 19 -22 46 -36 60 -24 23 -34 24 -162 27 -76 2 -141
0 -145 -4z m213 -474 l0 -350 -40 0 -40 0 0 350 0 350 40 0 40 0 0 -350z"/>
<path d="M3720 2042 c-19 -9 -40 -28 -47 -42 -18 -35 -18 -807 -1 -845 19 -43
56 -55 166 -55 85 0 103 3 125 21 33 25 49 79 45 144 l-3 50 -62 3 -63 3 0
-46 0 -45 -45 0 -45 0 0 351 0 350 43 -3 c42 -3 42 -3 45 -45 l3 -43 65 0 64
0 0 61 c0 78 -22 127 -66 145 -49 20 -181 18 -224 -4z"/>
<path d="M4200 1580 l0 -480 139 0 c124 0 141 2 164 20 36 28 47 76 47 200 -1
132 -11 178 -48 211 l-30 27 28 20 c38 29 50 86 50 241 0 222 -18 241 -224
241 l-126 0 0 -480z m210 195 l0 -155 -40 0 -40 0 0 155 0 155 40 0 40 0 0
-155z m0 -415 l0 -130 -40 0 -40 0 0 130 0 130 40 0 40 0 0 -130z"/>
<path d="M4673 2045 c-62 -27 -63 -31 -63 -476 l0 -401 34 -34 34 -34 106 0
c103 0 107 1 138 29 l33 29 3 400 c3 451 2 460 -62 487 -45 19 -180 19 -223 0z
m155 -467 l2 -348 -45 0 -45 0 0 351 0 350 43 -3 42 -3 3 -347z"/>
<path d="M5082 2045 c-60 -26 -62 -40 -62 -465 0 -493 -5 -480 177 -480 99 0
104 1 135 29 l33 29 3 406 c3 453 3 454 -63 482 -45 18 -180 18 -223 -1z m158
-465 l0 -350 -45 0 -45 0 0 343 c0 189 3 347 7 350 3 4 24 7 45 7 l38 0 0
-350z"/>
<path d="M5430 1580 l0 -480 71 0 71 0 -4 215 c-1 119 0 208 4 198 4 -10 21
-94 38 -188 17 -93 33 -182 36 -197 5 -27 8 -28 70 -28 35 0 64 3 64 8 0 4
-18 111 -41 238 l-42 231 41 229 c23 126 42 235 42 242 0 8 -20 12 -64 12
l-64 0 -30 -162 c-17 -90 -34 -182 -38 -206 -14 -88 -19 -44 -19 156 l0 207
-67 3 -68 3 0 -481z"/>
<path d="M5903 2040 c-44 -26 -53 -48 -53 -123 0 -85 33 -195 113 -382 67
-156 97 -242 97 -282 0 -20 -5 -23 -39 -23 -40 0 -40 0 -43 43 l-3 42 -62 3
-63 3 0 -71 c0 -130 30 -154 190 -148 96 3 103 5 125 30 64 74 41 183 -119
568 -31 74 -59 157 -62 183 l-7 47 42 0 41 0 0 -45 0 -45 71 0 72 0 -5 71 c-9
118 -45 149 -178 149 -67 0 -92 -4 -117 -20z"/>
<path d="M3250 895 l0 -65 50 0 50 0 0 -415 0 -415 70 0 70 0 0 415 0 415 50
0 50 0 0 65 0 65 -170 0 -170 0 0 -65z"/>
<path d="M3692 944 c-51 -35 -52 -44 -52 -459 0 -430 1 -439 63 -468 44 -21
174 -23 222 -3 65 27 65 31 65 471 0 430 -1 439 -55 463 -40 18 -215 16 -243
-4z m166 -461 l-3 -348 -40 0 -40 0 -3 348 -2 347 45 0 45 0 -2 -347z"/>
<path d="M4192 483 l3 -478 68 -3 67 -3 0 156 0 155 74 0 c92 0 123 21 137 90
12 63 11 427 -1 472 -6 20 -24 48 -41 62 -30 25 -35 26 -170 26 l-139 0 2
-477z m218 152 l0 -195 -40 0 -40 0 0 195 0 195 40 0 40 0 0 -195z"/>
<path d="M4610 480 l0 -480 65 0 64 0 3 143 3 142 39 -138 c21 -77 44 -141 51
-143 7 -3 37 -4 67 -2 l55 3 -42 151 -41 151 28 16 c52 30 58 64 58 304 0 247
-7 285 -53 313 -27 17 -51 20 -164 20 l-133 0 0 -480z m210 155 l0 -195 -40 0
-40 0 0 195 0 195 40 0 40 0 0 -195z"/>
<path d="M5020 480 l0 -480 65 0 65 0 0 480 0 480 -65 0 -65 0 0 -480z"/>
<path d="M5257 940 c-75 -59 -55 -204 69 -487 55 -127 104 -270 104 -304 0
-18 -6 -20 -42 -17 -43 3 -43 3 -46 45 l-3 43 -65 0 -64 0 0 -55 c0 -63 17
-111 50 -140 17 -16 40 -21 103 -24 95 -4 148 10 176 46 42 52 22 203 -49 373
-97 232 -131 321 -136 363 l-7 47 42 0 41 0 0 -39 0 -39 65 -4 65 -3 0 68 c0
77 -16 118 -55 135 -14 7 -69 12 -124 12 -83 0 -102 -3 -124 -20z"/>
<path d="M5660 932 c-39 -39 -42 -85 -38 -502 3 -315 5 -348 21 -374 29 -43
78 -58 173 -54 95 4 131 23 151 79 15 42 17 733 3 794 -5 22 -21 50 -35 63
-24 20 -36 22 -136 22 -108 0 -111 -1 -139 -28z m180 -452 l0 -350 -40 0 -40
0 0 350 0 350 40 0 40 0 0 -350z"/>
<path d="M6040 480 l0 -480 65 0 65 0 1 368 0 367 44 -85 44 -85 0 -282 1
-283 65 0 65 0 0 480 0 480 -65 0 -64 0 -3 -82 -3 -83 -43 83 -42 82 -65 0
-65 0 0 -480z"/>
<path d="M6488 931 c-32 -29 -33 -32 -33 -108 1 -96 22 -170 116 -390 74 -175
106 -280 91 -295 -5 -5 -25 -8 -43 -6 -32 3 -34 5 -37 45 l-3 43 -65 0 -64 0
0 -60 c0 -82 20 -127 64 -145 46 -19 176 -19 221 -1 99 42 86 186 -45 494 -60
139 -110 283 -110 314 0 5 20 8 45 8 l45 0 0 -40 0 -40 66 0 66 0 -4 76 c-3
71 -6 78 -36 105 -31 28 -36 29 -137 29 -102 0 -106 -1 -137 -29z"/>
<path d="M1373 185 c-7 -20 2 -29 21 -22 9 4 13 13 10 22 -8 19 -23 19 -31 0z"/>
</g>
</svg>
